<?xml version="1.0" encoding="UTF-8" standalone="no"?>
<!-- Uploaded to: SVG Repo, www.svgrepo.com, Generator: SVG Repo Mixer Tools -->

<svg
   fill="#000000"
   height="800px"
   width="800px"
   version="1.1"
   id="Layer_1"
   viewBox="0 0 512 512"
   xml:space="preserve"
   sodipodi:docname="robot.svg"
   inkscape:version="1.3 (0e150ed6c4, 2023-07-21)"
   xmlns:inkscape="http://www.inkscape.org/namespaces/inkscape"
   xmlns:sodipodi="http://sodipodi.sourceforge.net/DTD/sodipodi-0.dtd"
   xmlns="http://www.w3.org/2000/svg"
   xmlns:svg="http://www.w3.org/2000/svg"><defs
   id="defs14">&#10;	&#10;&#10;		&#10;	</defs><sodipodi:namedview
   id="namedview14"
   pagecolor="#ffffff"
   bordercolor="#000000"
   borderopacity="0.25"
   inkscape:showpageshadow="2"
   inkscape:pageopacity="0.0"
   inkscape:pagecheckerboard="0"
   inkscape:deskcolor="#d1d1d1"
   inkscape:zoom="2.32125"
   inkscape:cx="399.7846"
   inkscape:cy="400"
   inkscape:window-width="3840"
   inkscape:window-height="2071"
   inkscape:window-x="-9"
   inkscape:window-y="-9"
   inkscape:window-maximized="1"
   inkscape:current-layer="layer1" />&#10;&#10;&#10;&#10;&#10;&#10;&#10;<g
   inkscape:groupmode="layer"
   id="layer1"
   inkscape:label="contour"
   style="stroke-width:0.64;stroke-dasharray:none;fill:none;stroke:#e50000;stroke-opacity:1"><path
     style="fill:none;stroke:#e50000;stroke-width:0.64;stroke-dasharray:none;stroke-opacity:1"
     d="m 418.311,260.536 c -11.671,0 -21.681,7.215 -25.824,17.417 h -40.353 v -13.667 c 0,-10.326 -8.401,-18.727 -18.728,-18.727 H 301.63 v -6.27 h 50.655 c 11.44,0 20.747,-9.307 20.747,-20.747 V 88.668 c 0,-11.44 -9.307,-20.747 -20.747,-20.747 H 266.45 V 53.69 C 276.652,49.548 283.867,39.535 283.867,27.866 283.866,12.501 271.365,0 255.999,0 c -15.365,0 -27.865,12.501 -27.865,27.865 0,11.67 7.215,21.682 17.416,25.824 V 67.92 h -85.836 c -11.44,0 -20.747,9.307 -20.747,20.747 v 129.874 c 0,11.44 9.307,20.747 20.747,20.747 h 50.655 v 6.27 h -31.776 c -10.327,0 -18.728,8.401 -18.728,18.727 V 277.95 H 119.53 c -1.383,-3.422 -3.45,-6.565 -6.139,-9.254 -5.263,-5.262 -12.26,-8.161 -19.703,-8.161 -15.363,0 -27.863,12.498 -27.866,27.864 0,15.366 12.5,27.866 27.866,27.866 11.671,0 21.682,-7.215 25.824,-17.417 h 40.353 v 117.115 c 0,10.326 8.401,18.727 18.728,18.727 h 47.145 v 16.669 l -61.312,41.539 c -3.8,2.575 -5.474,7.329 -4.127,11.717 1.346,4.388 5.399,7.384 9.99,7.384 h 65.9 c 5.77,0 10.449,-4.679 10.449,-10.449 v -10.405 -34.242 -22.21 h 18.783 v 21.595 34.38 10.884 c 0,5.77 4.679,10.449 10.449,10.449 h 66.811 c 4.59,0 8.643,-2.996 9.99,-7.383 1.347,-4.388 -0.328,-9.141 -4.128,-11.717 L 286.32,450.744 v -16.051 h 47.086 c 10.327,0 18.728,-8.401 18.728,-18.727 V 298.852 h 40.335 c 1.383,3.422 3.45,6.565 6.139,9.254 5.263,5.262 12.26,8.161 19.703,8.161 15.364,0 27.864,-12.499 27.866,-27.864 0,-15.366 -12.5,-27.867 -27.866,-27.867 z"
     id="path8" /></g><g
   inkscape:groupmode="layer"
   id="layer2"
   inkscape:label="dessins"
   style="fill:none;stroke:#140000;stroke-opacity:1;stroke-width:0.64;stroke-dasharray:none"><path
     style="fill:none;stroke:#140000;stroke-width:0.64;stroke-dasharray:none;stroke-opacity:1"
     d="M 159.866,218.391 V 88.819 h 192.267 v 129.572 z"
     id="path18" /><path
     style="fill:none;stroke:#140000;stroke-width:0.64;stroke-dasharray:none;stroke-opacity:1"
     d="m 93.688,295.368 c -3.842,0 -6.968,-3.125 -6.968,-6.966 0.001,-3.842 3.126,-6.968 6.968,-6.968 1.861,0 3.611,0.724 4.927,2.04 1.316,1.316 2.039,3.064 2.039,4.926 0,3.842 -3.125,6.968 -6.966,6.968 z"
     id="path15" /><path
     style="fill:none;stroke:#140000;stroke-width:0.64;stroke-dasharray:none;stroke-opacity:1"
     d="m 225.739,491.101 h -21.398 l 21.398,-14.497 z"
     id="path16" /><path
     style="fill:none;stroke:#140000;stroke-width:0.64;stroke-dasharray:none;stroke-opacity:1"
     d="m 280.731,239.289 v 6.27 h -49.462 v -6.27 z"
     id="path19" /><path
     style="fill:none;stroke:#140000;stroke-width:0.64;stroke-dasharray:none;stroke-opacity:1"
     d="m 255.999,20.899 c 3.842,0 6.968,3.125 6.968,6.967 0,3.841 -3.125,6.967 -6.968,6.967 -3.841,0 -6.967,-3.125 -6.967,-6.967 10e-4,-3.842 3.126,-6.967 6.967,-6.967 z"
     id="path17" /><path
     style="fill:none;stroke:#140000;stroke-width:0.64;stroke-dasharray:none;stroke-opacity:1"
     d="m 308.627,491.101 h -22.308 v -0.435 -14.679 z"
     id="path20" /><path
     style="fill:none;stroke:#140000;stroke-width:0.64;stroke-dasharray:none;stroke-opacity:1"
     d="M 331.235,413.793 H 180.765 V 266.458 h 150.47 z"
     id="path21" /><path
     style="fill:none;stroke:#140000;stroke-width:0.64;stroke-dasharray:none;stroke-opacity:1"
     d="m 418.311,295.368 c -1.861,0 -3.61,-0.724 -4.926,-2.04 -1.316,-1.316 -2.04,-3.065 -2.04,-4.926 0,-3.842 3.124,-6.968 6.966,-6.968 3.842,0 6.968,3.125 6.968,6.967 0,3.842 -3.126,6.967 -6.968,6.967 z"
     id="path22" /><path
     d="m 317.001,311.588 c -2.346,-5.273 -8.521,-7.649 -13.793,-5.305 -5.274,2.344 -7.649,8.518 -5.306,13.792 7.672,17.264 3.849,37.84 -9.512,51.202 -8.963,8.964 -20.736,13.446 -32.51,13.445 -11.773,-0.002 -23.549,-4.483 -32.511,-13.445 -17.926,-17.926 -17.926,-47.095 0,-65.022 7.558,-7.558 17.162,-12.131 27.771,-13.224 5.741,-0.59 9.914,-5.724 9.324,-11.465 -0.589,-5.739 -5.694,-9.911 -11.465,-9.324 -15.22,1.567 -29.572,8.398 -40.409,19.234 -26.073,26.075 -26.073,68.503 0,94.578 13.039,13.038 30.163,19.556 47.289,19.556 17.125,0 34.251,-6.518 47.288,-19.556 19.432,-19.433 24.991,-49.358 13.834,-74.466 z"
     id="path12"
     style="display:inline;fill:none;stroke:#140000;stroke-opacity:1;stroke-width:0.64;stroke-dasharray:none" /><path
     d="m 290.015,281.243 -0.588,-0.345 c -4.992,-2.9 -11.386,-1.206 -14.286,3.782 -2.9,4.989 -1.207,11.385 3.783,14.285 l 0.463,0.272 c 1.669,0.984 3.498,1.455 5.304,1.455 3.576,0 7.057,-1.837 9.007,-5.137 2.935,-4.97 1.285,-11.377 -3.683,-14.312 z"
     id="path10"
     style="display:inline;fill:none;stroke:#140000;stroke-opacity:1;stroke-width:0.64;stroke-dasharray:none" /><path
     d="M207.412,94.392c-15.366,0-27.866,12.501-27.866,27.865s12.5,27.865,27.866,27.865c15.365,0,27.864-12.5,27.864-27.865    S222.777,94.392,207.412,94.392z M207.412,129.224c-3.842,0-6.968-3.125-6.968-6.967c0-3.841,3.125-6.967,6.968-6.967    c3.841,0,6.966,3.125,6.966,6.967C214.378,126.098,211.253,129.224,207.412,129.224z"
     id="path1"
     style="fill:none;stroke:#140000;stroke-opacity:1;stroke-width:0.64;stroke-dasharray:none" /><path
     d="M255.999,303.031c-19.59,0-35.528,15.937-35.528,35.528c0,19.59,15.937,35.528,35.528,35.528s35.528-15.937,35.528-35.528    S275.59,303.031,255.999,303.031z M255.999,353.188c-8.067,0-14.629-6.562-14.629-14.629c0-8.067,6.562-14.629,14.629-14.629    s14.629,6.562,14.629,14.629C270.629,346.626,264.066,353.188,255.999,353.188z"
     id="path6"
     style="fill:none;stroke:#140000;stroke-opacity:1;stroke-width:0.64;stroke-dasharray:none" /><path
     d="M291.18,155.782h-70.36c-5.77,0-10.449,4.679-10.449,10.449v30.216c0,5.771,4.679,10.449,10.449,10.449h70.36    c5.77,0,10.449-4.678,10.449-10.449v-30.216C301.63,160.461,296.95,155.782,291.18,155.782z M280.731,185.998h-49.462v-9.318    h49.462V185.998z"
     id="path4"
     style="fill:none;stroke:#140000;stroke-opacity:1;stroke-width:0.64;stroke-dasharray:none" /><path
     d="M304.588,94.392c-15.365,0-27.865,12.501-27.865,27.865s12.5,27.865,27.865,27.865c15.365,0,27.865-12.5,27.865-27.865    S319.952,94.392,304.588,94.392z M304.588,129.224c-3.841,0-6.967-3.125-6.967-6.967c0-3.841,3.125-6.967,6.967-6.967    c3.841,0,6.967,3.125,6.967,6.967C311.554,126.098,308.429,129.224,304.588,129.224z"
     id="path2"
     style="fill:none;stroke:#140000;stroke-opacity:1;stroke-width:0.64;stroke-dasharray:none" /></g>&#10;</svg>
